<mxfile host="app.diagrams.net" agent="Mozilla/5.0 (Windows NT 10.0; Win64; x64) AppleWebKit/537.36 (KHTML, like Gecko) Chrome/124.0.0.0 Safari/537.36" version="26.1.2">
  <diagram id="R2lEEEUBdFMjLlhIrx00" name="Page-1">
    <mxGraphModel dx="1134" dy="666" grid="1" gridSize="10" guides="1" tooltips="1" connect="1" arrows="1" fold="1" page="1" pageScale="1" pageWidth="850" pageHeight="1100" math="0" shadow="0" extFonts="Permanent Marker^https://fonts.googleapis.com/css?family=Permanent+Marker">
      <root>
        <mxCell id="0" />
        <mxCell id="1" parent="0" />
        <mxCell id="oJzxBungK88UDZo50Rff-187" style="edgeStyle=orthogonalEdgeStyle;rounded=0;orthogonalLoop=1;jettySize=auto;html=1;exitX=0.5;exitY=0;exitDx=0;exitDy=0;entryX=0.5;entryY=1;entryDx=0;entryDy=0;" edge="1" parent="1" source="oJzxBungK88UDZo50Rff-98" target="oJzxBungK88UDZo50Rff-100">
          <mxGeometry relative="1" as="geometry" />
        </mxCell>
        <mxCell id="oJzxBungK88UDZo50Rff-188" style="edgeStyle=orthogonalEdgeStyle;rounded=0;orthogonalLoop=1;jettySize=auto;html=1;exitX=0.5;exitY=1;exitDx=0;exitDy=0;entryX=0.5;entryY=0;entryDx=0;entryDy=0;" edge="1" parent="1" source="oJzxBungK88UDZo50Rff-98" target="oJzxBungK88UDZo50Rff-99">
          <mxGeometry relative="1" as="geometry" />
        </mxCell>
        <mxCell id="oJzxBungK88UDZo50Rff-98" value="&lt;b&gt;subtask&lt;/b&gt;" style="whiteSpace=wrap;html=1;align=center;" vertex="1" parent="1">
          <mxGeometry x="510" y="210" width="100" height="40" as="geometry" />
        </mxCell>
        <mxCell id="oJzxBungK88UDZo50Rff-99" value="&lt;span style=&quot;font-size:10.5pt;mso-bidi-font-size:&lt;br/&gt;11.0pt;font-family:DengXian;mso-ascii-theme-font:minor-latin;mso-fareast-theme-font:&lt;br/&gt;minor-fareast;mso-hansi-theme-font:minor-latin;mso-bidi-font-family:&amp;quot;Times New Roman&amp;quot;;&lt;br/&gt;mso-bidi-theme-font:minor-bidi;mso-ansi-language:EN-US;mso-fareast-language:&lt;br/&gt;ZH-CN;mso-bidi-language:AR-SA&quot; lang=&quot;EN-US&quot;&gt;ProjectTaskSchedule&lt;/span&gt;" style="whiteSpace=wrap;html=1;align=center;" vertex="1" parent="1">
          <mxGeometry x="485" y="320" width="140" height="40" as="geometry" />
        </mxCell>
        <mxCell id="oJzxBungK88UDZo50Rff-100" value="&lt;span style=&quot;font-size:10.5pt;mso-bidi-font-size:&lt;br/&gt;11.0pt;font-family:DengXian;mso-ascii-theme-font:minor-latin;mso-fareast-theme-font:&lt;br/&gt;minor-fareast;mso-hansi-theme-font:minor-latin;mso-bidi-font-family:&amp;quot;Times New Roman&amp;quot;;&lt;br/&gt;mso-bidi-theme-font:minor-bidi;mso-ansi-language:EN-US;mso-fareast-language:&lt;br/&gt;ZH-CN;mso-bidi-language:AR-SA&quot; lang=&quot;EN-US&quot;&gt;ProjectTypeTask&amp;nbsp;&lt;/span&gt;" style="whiteSpace=wrap;html=1;align=center;" vertex="1" parent="1">
          <mxGeometry x="500" y="120" width="110" height="40" as="geometry" />
        </mxCell>
        <mxCell id="oJzxBungK88UDZo50Rff-165" style="edgeStyle=orthogonalEdgeStyle;rounded=0;orthogonalLoop=1;jettySize=auto;html=1;exitX=1;exitY=0.5;exitDx=0;exitDy=0;entryX=0;entryY=0.75;entryDx=0;entryDy=0;" edge="1" parent="1" source="oJzxBungK88UDZo50Rff-101" target="oJzxBungK88UDZo50Rff-99">
          <mxGeometry relative="1" as="geometry" />
        </mxCell>
        <mxCell id="oJzxBungK88UDZo50Rff-101" value="&lt;span style=&quot;font-weight: 700; text-wrap: nowrap;&quot;&gt;Project&lt;/span&gt;" style="whiteSpace=wrap;html=1;align=center;" vertex="1" parent="1">
          <mxGeometry x="325" y="270" width="100" height="40" as="geometry" />
        </mxCell>
        <mxCell id="oJzxBungK88UDZo50Rff-102" value="&lt;span style=&quot;font-weight: 700; text-wrap: nowrap;&quot;&gt;Customer&lt;/span&gt;" style="whiteSpace=wrap;html=1;align=center;" vertex="1" parent="1">
          <mxGeometry x="325" y="460" width="100" height="40" as="geometry" />
        </mxCell>
        <mxCell id="oJzxBungK88UDZo50Rff-177" style="edgeStyle=orthogonalEdgeStyle;rounded=0;orthogonalLoop=1;jettySize=auto;html=1;exitX=1;exitY=0.5;exitDx=0;exitDy=0;entryX=0;entryY=0.5;entryDx=0;entryDy=0;" edge="1" parent="1" source="oJzxBungK88UDZo50Rff-103" target="oJzxBungK88UDZo50Rff-100">
          <mxGeometry relative="1" as="geometry" />
        </mxCell>
        <mxCell id="oJzxBungK88UDZo50Rff-103" value="&lt;span style=&quot;font-weight: 700; text-wrap: nowrap;&quot;&gt;ProjectType&lt;/span&gt;" style="whiteSpace=wrap;html=1;align=center;" vertex="1" parent="1">
          <mxGeometry x="325" y="120" width="100" height="40" as="geometry" />
        </mxCell>
        <mxCell id="oJzxBungK88UDZo50Rff-108" value="&lt;span style=&quot;font-weight: 700; text-align: left;&quot;&gt;PrjTypeName&lt;/span&gt;" style="ellipse;whiteSpace=wrap;html=1;align=center;fontStyle=4;" vertex="1" parent="1">
          <mxGeometry x="320" y="40" width="100" height="40" as="geometry" />
        </mxCell>
        <mxCell id="oJzxBungK88UDZo50Rff-109" value="&lt;span style=&quot;font-weight: 700; text-align: left;&quot;&gt;CustNo&lt;/span&gt;" style="ellipse;whiteSpace=wrap;html=1;align=center;fontStyle=4;" vertex="1" parent="1">
          <mxGeometry x="385" y="540" width="100" height="40" as="geometry" />
        </mxCell>
        <mxCell id="oJzxBungK88UDZo50Rff-114" value="" style="endArrow=none;html=1;rounded=0;exitX=0.5;exitY=0;exitDx=0;exitDy=0;" edge="1" parent="1" source="oJzxBungK88UDZo50Rff-115">
          <mxGeometry relative="1" as="geometry">
            <mxPoint x="280" y="539" as="sourcePoint" />
            <mxPoint x="360" y="500" as="targetPoint" />
          </mxGeometry>
        </mxCell>
        <mxCell id="oJzxBungK88UDZo50Rff-115" value="&lt;span style=&quot;text-align: left;&quot;&gt;CustName&lt;/span&gt;" style="ellipse;whiteSpace=wrap;html=1;align=center;fontStyle=1" vertex="1" parent="1">
          <mxGeometry x="280" y="540" width="100" height="40" as="geometry" />
        </mxCell>
        <mxCell id="oJzxBungK88UDZo50Rff-116" value="" style="endArrow=none;html=1;rounded=0;exitX=0.5;exitY=1;exitDx=0;exitDy=0;" edge="1" parent="1" source="oJzxBungK88UDZo50Rff-103" target="oJzxBungK88UDZo50Rff-117">
          <mxGeometry relative="1" as="geometry">
            <mxPoint x="380" y="200" as="sourcePoint" />
            <mxPoint x="375" y="200" as="targetPoint" />
          </mxGeometry>
        </mxCell>
        <mxCell id="oJzxBungK88UDZo50Rff-117" value="Belong" style="shape=rhombus;perimeter=rhombusPerimeter;whiteSpace=wrap;html=1;align=center;" vertex="1" parent="1">
          <mxGeometry x="315" y="180" width="120" height="60" as="geometry" />
        </mxCell>
        <mxCell id="oJzxBungK88UDZo50Rff-118" value="" style="endArrow=none;html=1;rounded=0;exitX=0.5;exitY=1;exitDx=0;exitDy=0;" edge="1" parent="1" source="oJzxBungK88UDZo50Rff-117">
          <mxGeometry relative="1" as="geometry">
            <mxPoint x="470" y="240" as="sourcePoint" />
            <mxPoint x="375" y="270" as="targetPoint" />
          </mxGeometry>
        </mxCell>
        <mxCell id="oJzxBungK88UDZo50Rff-119" value="have" style="shape=rhombus;perimeter=rhombusPerimeter;whiteSpace=wrap;html=1;align=center;" vertex="1" parent="1">
          <mxGeometry x="315" y="360" width="120" height="60" as="geometry" />
        </mxCell>
        <mxCell id="oJzxBungK88UDZo50Rff-121" value="" style="endArrow=none;html=1;rounded=0;exitX=0.5;exitY=1;exitDx=0;exitDy=0;" edge="1" parent="1" source="oJzxBungK88UDZo50Rff-101">
          <mxGeometry relative="1" as="geometry">
            <mxPoint x="380" y="330" as="sourcePoint" />
            <mxPoint x="375" y="360" as="targetPoint" />
          </mxGeometry>
        </mxCell>
        <mxCell id="oJzxBungK88UDZo50Rff-123" value="" style="endArrow=none;html=1;rounded=0;exitX=0.5;exitY=1;exitDx=0;exitDy=0;entryX=0.5;entryY=0;entryDx=0;entryDy=0;" edge="1" parent="1" source="oJzxBungK88UDZo50Rff-108" target="oJzxBungK88UDZo50Rff-103">
          <mxGeometry relative="1" as="geometry">
            <mxPoint x="400" y="80" as="sourcePoint" />
            <mxPoint x="370" y="110" as="targetPoint" />
          </mxGeometry>
        </mxCell>
        <mxCell id="oJzxBungK88UDZo50Rff-126" value="" style="endArrow=none;html=1;rounded=0;" edge="1" parent="1">
          <mxGeometry relative="1" as="geometry">
            <mxPoint x="370" y="420" as="sourcePoint" />
            <mxPoint x="370" y="460" as="targetPoint" />
          </mxGeometry>
        </mxCell>
        <mxCell id="oJzxBungK88UDZo50Rff-127" style="edgeStyle=orthogonalEdgeStyle;rounded=0;orthogonalLoop=1;jettySize=auto;html=1;exitX=0.5;exitY=1;exitDx=0;exitDy=0;" edge="1" parent="1" source="oJzxBungK88UDZo50Rff-115" target="oJzxBungK88UDZo50Rff-115">
          <mxGeometry relative="1" as="geometry" />
        </mxCell>
        <mxCell id="oJzxBungK88UDZo50Rff-167" value="&lt;span style=&quot;font-weight: 700; text-align: left;&quot;&gt;PrjNo&lt;/span&gt;" style="ellipse;whiteSpace=wrap;html=1;align=center;fontStyle=4;" vertex="1" parent="1">
          <mxGeometry x="140" y="170" width="100" height="40" as="geometry" />
        </mxCell>
        <mxCell id="oJzxBungK88UDZo50Rff-172" value="PrjStartDate" style="ellipse;whiteSpace=wrap;html=1;align=center;" vertex="1" parent="1">
          <mxGeometry x="140" y="220" width="100" height="40" as="geometry" />
        </mxCell>
        <mxCell id="oJzxBungK88UDZo50Rff-173" value="&lt;span style=&quot;text-align: left;&quot;&gt;PrjFinishDate&lt;/span&gt;" style="ellipse;whiteSpace=wrap;html=1;align=center;" vertex="1" parent="1">
          <mxGeometry x="140" y="260" width="100" height="40" as="geometry" />
        </mxCell>
        <mxCell id="oJzxBungK88UDZo50Rff-174" value="&lt;span style=&quot;text-align: left;&quot;&gt;CustName&lt;/span&gt;" style="ellipse;whiteSpace=wrap;html=1;align=center;" vertex="1" parent="1">
          <mxGeometry x="140" y="360" width="100" height="40" as="geometry" />
        </mxCell>
        <mxCell id="oJzxBungK88UDZo50Rff-175" value="&lt;span style=&quot;text-align: left;&quot;&gt;CustNo&lt;/span&gt;" style="ellipse;whiteSpace=wrap;html=1;align=center;" vertex="1" parent="1">
          <mxGeometry x="140" y="310" width="100" height="40" as="geometry" />
        </mxCell>
        <mxCell id="oJzxBungK88UDZo50Rff-176" value="&lt;span style=&quot;font-size:10.5pt;mso-bidi-font-size:&lt;br/&gt;11.0pt;font-family:DengXian;mso-ascii-theme-font:minor-latin;mso-fareast-theme-font:&lt;br/&gt;minor-fareast;mso-hansi-theme-font:minor-latin;mso-bidi-font-family:&amp;quot;Times New Roman&amp;quot;;&lt;br/&gt;mso-bidi-theme-font:minor-bidi;mso-ansi-language:EN-US;mso-fareast-language:&lt;br/&gt;ZH-CN;mso-bidi-language:AR-SA&quot; lang=&quot;EN-US&quot;&gt;PrjTypeName&lt;/span&gt;" style="ellipse;whiteSpace=wrap;html=1;align=center;" vertex="1" parent="1">
          <mxGeometry x="130" y="410" width="110" height="40" as="geometry" />
        </mxCell>
        <mxCell id="oJzxBungK88UDZo50Rff-181" value="" style="endArrow=none;html=1;rounded=0;exitX=1;exitY=0.5;exitDx=0;exitDy=0;" edge="1" parent="1" source="oJzxBungK88UDZo50Rff-176">
          <mxGeometry relative="1" as="geometry">
            <mxPoint x="165" y="289.29" as="sourcePoint" />
            <mxPoint x="325" y="289.29" as="targetPoint" />
          </mxGeometry>
        </mxCell>
        <mxCell id="oJzxBungK88UDZo50Rff-182" value="" style="endArrow=none;html=1;rounded=0;exitX=1;exitY=0.5;exitDx=0;exitDy=0;" edge="1" parent="1" source="oJzxBungK88UDZo50Rff-167">
          <mxGeometry relative="1" as="geometry">
            <mxPoint x="165" y="289.29" as="sourcePoint" />
            <mxPoint x="325" y="289" as="targetPoint" />
          </mxGeometry>
        </mxCell>
        <mxCell id="oJzxBungK88UDZo50Rff-183" value="" style="endArrow=none;html=1;rounded=0;exitX=1;exitY=0.5;exitDx=0;exitDy=0;" edge="1" parent="1" source="oJzxBungK88UDZo50Rff-172">
          <mxGeometry relative="1" as="geometry">
            <mxPoint x="180" y="289.29" as="sourcePoint" />
            <mxPoint x="330" y="289" as="targetPoint" />
          </mxGeometry>
        </mxCell>
        <mxCell id="oJzxBungK88UDZo50Rff-184" value="" style="endArrow=none;html=1;rounded=0;exitX=1;exitY=0.5;exitDx=0;exitDy=0;" edge="1" parent="1" source="oJzxBungK88UDZo50Rff-173">
          <mxGeometry relative="1" as="geometry">
            <mxPoint x="165" y="289.29" as="sourcePoint" />
            <mxPoint x="325" y="289.29" as="targetPoint" />
          </mxGeometry>
        </mxCell>
        <mxCell id="oJzxBungK88UDZo50Rff-185" value="" style="endArrow=none;html=1;rounded=0;exitX=1;exitY=0.5;exitDx=0;exitDy=0;" edge="1" parent="1" source="oJzxBungK88UDZo50Rff-175">
          <mxGeometry relative="1" as="geometry">
            <mxPoint x="170" y="289.29" as="sourcePoint" />
            <mxPoint x="330" y="289.29" as="targetPoint" />
          </mxGeometry>
        </mxCell>
        <mxCell id="oJzxBungK88UDZo50Rff-186" value="" style="endArrow=none;html=1;rounded=0;exitX=1;exitY=0.5;exitDx=0;exitDy=0;" edge="1" parent="1" source="oJzxBungK88UDZo50Rff-174">
          <mxGeometry relative="1" as="geometry">
            <mxPoint x="170" y="289.29" as="sourcePoint" />
            <mxPoint x="330" y="289.29" as="targetPoint" />
          </mxGeometry>
        </mxCell>
        <mxCell id="oJzxBungK88UDZo50Rff-189" value="" style="endArrow=none;html=1;rounded=0;" edge="1" parent="1" target="oJzxBungK88UDZo50Rff-190">
          <mxGeometry relative="1" as="geometry">
            <mxPoint x="610" y="229.29" as="sourcePoint" />
            <mxPoint x="680" y="229" as="targetPoint" />
          </mxGeometry>
        </mxCell>
        <mxCell id="oJzxBungK88UDZo50Rff-190" value="TaskCode" style="ellipse;whiteSpace=wrap;html=1;align=center;fontStyle=4;" vertex="1" parent="1">
          <mxGeometry x="660" y="180" width="100" height="40" as="geometry" />
        </mxCell>
        <mxCell id="oJzxBungK88UDZo50Rff-191" value="TaskName" style="ellipse;whiteSpace=wrap;html=1;align=center;" vertex="1" parent="1">
          <mxGeometry x="670" y="240" width="100" height="40" as="geometry" />
        </mxCell>
        <mxCell id="oJzxBungK88UDZo50Rff-193" value="" style="endArrow=none;html=1;rounded=0;entryX=0;entryY=0.5;entryDx=0;entryDy=0;" edge="1" parent="1" target="oJzxBungK88UDZo50Rff-191">
          <mxGeometry relative="1" as="geometry">
            <mxPoint x="610" y="229.29" as="sourcePoint" />
            <mxPoint x="770" y="229.29" as="targetPoint" />
          </mxGeometry>
        </mxCell>
        <mxCell id="oJzxBungK88UDZo50Rff-194" value="TaskCode" style="ellipse;whiteSpace=wrap;html=1;align=center;fontStyle=4;" vertex="1" parent="1">
          <mxGeometry x="600" y="20" width="100" height="40" as="geometry" />
        </mxCell>
        <mxCell id="oJzxBungK88UDZo50Rff-195" value="PrjTypeName" style="ellipse;whiteSpace=wrap;html=1;align=center;fontStyle=4;" vertex="1" parent="1">
          <mxGeometry x="470" y="20" width="115" height="40" as="geometry" />
        </mxCell>
        <mxCell id="oJzxBungK88UDZo50Rff-197" value="" style="endArrow=none;html=1;rounded=0;entryX=0.5;entryY=1;entryDx=0;entryDy=0;" edge="1" parent="1" target="oJzxBungK88UDZo50Rff-195">
          <mxGeometry relative="1" as="geometry">
            <mxPoint x="530" y="120" as="sourcePoint" />
            <mxPoint x="690" y="120" as="targetPoint" />
          </mxGeometry>
        </mxCell>
        <mxCell id="oJzxBungK88UDZo50Rff-199" value="" style="endArrow=none;html=1;rounded=0;entryX=0.5;entryY=1;entryDx=0;entryDy=0;" edge="1" parent="1" target="oJzxBungK88UDZo50Rff-194">
          <mxGeometry relative="1" as="geometry">
            <mxPoint x="535" y="120" as="sourcePoint" />
            <mxPoint x="695" y="120" as="targetPoint" />
          </mxGeometry>
        </mxCell>
        <mxCell id="oJzxBungK88UDZo50Rff-200" value="TaskStartDate" style="ellipse;whiteSpace=wrap;html=1;align=center;" vertex="1" parent="1">
          <mxGeometry x="700" y="330" width="100" height="40" as="geometry" />
        </mxCell>
        <mxCell id="oJzxBungK88UDZo50Rff-201" value="&lt;span style=&quot;font-weight: 700; text-align: left;&quot;&gt;PrjNo&lt;/span&gt;" style="ellipse;whiteSpace=wrap;html=1;align=center;fontStyle=4;" vertex="1" parent="1">
          <mxGeometry x="500" y="400" width="100" height="40" as="geometry" />
        </mxCell>
        <mxCell id="oJzxBungK88UDZo50Rff-202" value="TaskCode" style="ellipse;whiteSpace=wrap;html=1;align=center;fontStyle=4;" vertex="1" parent="1">
          <mxGeometry x="625" y="420" width="100" height="40" as="geometry" />
        </mxCell>
        <mxCell id="oJzxBungK88UDZo50Rff-203" value="TaskStopDate" style="ellipse;whiteSpace=wrap;html=1;align=center;" vertex="1" parent="1">
          <mxGeometry x="730" y="390" width="100" height="40" as="geometry" />
        </mxCell>
        <mxCell id="oJzxBungK88UDZo50Rff-204" value="" style="endArrow=none;html=1;rounded=0;entryX=0.5;entryY=0;entryDx=0;entryDy=0;" edge="1" parent="1" target="oJzxBungK88UDZo50Rff-201">
          <mxGeometry relative="1" as="geometry">
            <mxPoint x="565" y="360" as="sourcePoint" />
            <mxPoint x="725" y="360" as="targetPoint" />
          </mxGeometry>
        </mxCell>
        <mxCell id="oJzxBungK88UDZo50Rff-205" value="" style="endArrow=none;html=1;rounded=0;entryX=0.5;entryY=0;entryDx=0;entryDy=0;" edge="1" parent="1" target="oJzxBungK88UDZo50Rff-202">
          <mxGeometry relative="1" as="geometry">
            <mxPoint x="590" y="360" as="sourcePoint" />
            <mxPoint x="750" y="360" as="targetPoint" />
          </mxGeometry>
        </mxCell>
        <mxCell id="oJzxBungK88UDZo50Rff-206" value="" style="endArrow=none;html=1;rounded=0;entryX=0;entryY=0.5;entryDx=0;entryDy=0;" edge="1" parent="1" target="oJzxBungK88UDZo50Rff-200">
          <mxGeometry relative="1" as="geometry">
            <mxPoint x="625" y="348.57" as="sourcePoint" />
            <mxPoint x="785" y="348.57" as="targetPoint" />
          </mxGeometry>
        </mxCell>
        <mxCell id="oJzxBungK88UDZo50Rff-207" value="" style="endArrow=none;html=1;rounded=0;entryX=0.031;entryY=0.261;entryDx=0;entryDy=0;entryPerimeter=0;" edge="1" parent="1" target="oJzxBungK88UDZo50Rff-203">
          <mxGeometry relative="1" as="geometry">
            <mxPoint x="620" y="360" as="sourcePoint" />
            <mxPoint x="780" y="360" as="targetPoint" />
          </mxGeometry>
        </mxCell>
        <mxCell id="oJzxBungK88UDZo50Rff-208" value="" style="endArrow=none;html=1;rounded=0;entryX=0.5;entryY=0;entryDx=0;entryDy=0;" edge="1" parent="1" target="oJzxBungK88UDZo50Rff-109">
          <mxGeometry relative="1" as="geometry">
            <mxPoint x="370" y="500" as="sourcePoint" />
            <mxPoint x="530" y="500" as="targetPoint" />
          </mxGeometry>
        </mxCell>
      </root>
    </mxGraphModel>
  </diagram>
</mxfile>
